# xmcd
#
# Track frame offsets:
#	150
#	15954
#	31703
#	53078
#	67984
#	93858
#	124234
#	151233
#	159530
#	178654
#	191169
#	209731
#	221541
#	238978
#
# Disc length: 3627 seconds
#
# Revision: 0
# Processed by: cddbd v1.5.2PL0 Copyright (c) Steve Scherf et al.
# Submitted via: audiograbber 1.83.01
#
DISCID=bb0e290e
DTITLE=DJ Simon - Retro vs House vol. One
DYEAR=2008
DGENRE=Club-House
TTITLE0=Dave Sinclair - Self Control (The Annual Remake 2008)
TTITLE1=Jackie B. - Let The Music Play (Risque Radio Edit)
TTITLE2=Overdub feat. Sophia - Sweet Dreams (Doug Laurent Bonzai Mix Part 2)
TTITLE3=Foundation feat. Marion - Fresh (MySpace Mashup Remix)
TTITLE4=Barbara Tucker - You Want Me Back (Mar T and Les Schmitz Remix)
TTITLE5=David Vendetta - Hold That Sucker Down (Vocal Mix)
TTITLE6=Soundbluntz - Billie Jean 2008 (Leggz And Femi Full Vocal Mix)
TTITLE7=Soda Inc. feat. Erica Blanchard - Everything You Do
TTITLE8=Soul Buddha feat. Lisa Millett - Realize (Video Mix)
TTITLE9=Natalie Marchenko - Baker Street (Destination Calabria Edit)
TTITLE10=Soul Buddha - So In Love With You (Album Mix)
TTITLE11=Dan Marciano vs Franck Dona - Cherish (Club Mix)
TTITLE12=Cardenia - Funkytown (Full On Vocal Version)
TTITLE13=Michael Kaiser and Killbeatz - Emergency (Original Mix)
EXTD=
EXTT0=
EXTT1=
EXTT2=
EXTT3=
EXTT4=
EXTT5=
EXTT6=
EXTT7=
EXTT8=
EXTT9=
EXTT10=
EXTT11=
EXTT12=
EXTT13=
PLAYORDER=
